<?xml version="1.0" standalone="no"?>
<!DOCTYPE svg PUBLIC "-//W3C//DTD SVG 20010904//EN"
 "http://www.w3.org/TR/2001/REC-SVG-20010904/DTD/svg10.dtd">
<svg version="1.0" xmlns="http://www.w3.org/2000/svg"
 width="750.000000pt" height="468.000000pt" viewBox="0 0 750.000000 468.000000"
 preserveAspectRatio="xMidYMid meet">

<g transform="translate(0.000000,468.000000) scale(0.100000,-0.100000)"
fill="#000000" stroke="none">
<path d="M2787 3384 c-364 -66 -635 -320 -689 -645 -10 -60 -18 -81 -45 -112
-26 -29 -33 -46 -33 -80 0 -51 24 -202 38 -238 24 -62 114 -95 237 -87 133 9
147 35 122 237 -28 218 -55 261 -161 261 l-56 0 6 28 c14 61 63 171 98 225 74
111 210 215 343 264 121 44 199 56 348 56 119 0 155 -4 239 -26 263 -70 437
-223 516 -453 32 -92 30 -100 -32 -96 -68 3 -98 -13 -125 -68 -23 -47 -53
-229 -53 -321 0 -88 61 -119 207 -106 80 8 132 32 156 73 20 37 53 241 43 278
-3 13 -17 38 -31 54 -14 17 -25 39 -25 50 0 46 -52 217 -84 279 -121 230 -344
382 -631 428 -111 18 -284 18 -388 -1z"/>
<path d="M5660 3150 l0 -167 -46 -6 c-81 -9 -121 -72 -89 -140 30 -63 104 -76
157 -28 l33 29 0 239 0 238 -27 1 -28 1 0 -167z"/>
<path d="M2453 2503 c3 -418 6 -497 21 -552 22 -86 70 -174 119 -217 112 -102
332 -147 538 -110 193 35 316 148 366 338 13 53 17 142 20 546 l5 482 -90 0
-91 0 -3 -467 c-4 -405 -7 -476 -21 -527 -47 -161 -136 -219 -337 -220 -116
-1 -180 19 -243 74 -99 87 -107 142 -107 704 l0 436 -91 0 -90 0 4 -487z"/>
<path d="M830 2627 c-72 -17 -110 -38 -165 -91 l-45 -43 0 59 0 58 -75 0 -75
0 0 -490 0 -490 79 0 78 0 6 323 c5 348 10 385 62 453 72 94 237 115 307 38
40 -45 43 -68 48 -444 l5 -365 83 -3 82 -3 0 324 c0 262 3 333 15 375 30 100
113 162 219 162 85 0 140 -36 165 -109 7 -23 11 -151 11 -392 l0 -359 85 0 85
0 0 365 c0 231 -4 383 -11 417 -32 150 -125 222 -289 222 -75 0 -92 -3 -150
-31 -70 -34 -89 -49 -132 -101 l-28 -33 -9 24 c-17 43 -69 94 -119 115 -63 27
-162 35 -232 19z"/>
<path d="M4434 2631 c-61 -10 -159 -53 -192 -84 -92 -85 -108 -244 -35 -339
53 -69 107 -93 368 -164 134 -36 173 -57 191 -100 32 -76 -26 -160 -126 -184
-71 -17 -174 -8 -228 19 -49 25 -99 88 -108 137 -3 19 -10 34 -16 34 -12 0
-152 -22 -156 -25 -1 -1 7 -32 18 -68 43 -138 143 -215 308 -239 207 -29 391
42 457 175 70 144 24 293 -109 356 -24 11 -124 43 -220 71 -207 58 -231 70
-253 114 -45 96 59 174 220 164 107 -7 163 -48 191 -141 5 -14 13 -17 33 -13
16 3 52 8 81 11 l53 7 -6 32 c-13 62 -56 137 -98 167 -79 57 -250 89 -373 70z"/>
<path d="M6636 2628 c-228 -43 -350 -220 -350 -508 1 -236 78 -386 239 -462
171 -79 375 -53 494 64 44 43 104 154 116 215 7 37 4 38 -95 48 l-65 7 -13
-54 c-17 -76 -57 -128 -122 -161 -49 -25 -63 -28 -125 -24 -78 4 -116 20 -164
69 -71 72 -96 167 -89 340 4 80 11 127 25 161 43 107 120 166 228 175 56 4 72
1 119 -22 58 -29 109 -90 121 -147 4 -18 12 -29 19 -26 7 3 43 8 80 12 l68 8
-6 35 c-8 55 -56 139 -99 179 -92 83 -240 118 -381 91z"/>
<path d="M5530 2120 l0 -490 85 0 85 0 0 490 0 490 -85 0 -85 0 0 -490z"/>
<path d="M2685 2510 c-4 -6 0 -22 9 -35 53 -82 180 -83 237 -4 37 53 -5 69
-51 19 -21 -23 -37 -30 -65 -30 -27 0 -44 8 -67 30 -31 31 -52 38 -63 20z"/>
<path d="M3041 2511 c-12 -8 -12 -13 3 -36 40 -61 120 -82 186 -46 40 21 75
64 66 80 -12 19 -33 12 -64 -19 -23 -22 -40 -30 -67 -30 -27 0 -44 8 -67 30
-32 33 -36 34 -57 21z"/>
</g>
</svg>
